<?xml version="1.0" encoding="utf-8"?>
<!-- Generator: Adobe Illustrator 16.0.0, SVG Export Plug-In . SVG Version: 6.00 Build 0)  -->
<!DOCTYPE svg PUBLIC "-//W3C//DTD SVG 1.1//EN" "http://www.w3.org/Graphics/SVG/1.1/DTD/svg11.dtd">
<svg version="1.1" id="Layer_1" xmlns="http://www.w3.org/2000/svg" xmlns:xlink="http://www.w3.org/1999/xlink" x="0px" y="0px"
	 width="1024px" height="1024px" viewBox="0 0 1024 1024" enable-background="new 0 0 1024 1024" xml:space="preserve">
<g>
	<circle fill-rule="evenodd" clip-rule="evenodd" fill="#3B3E96" cx="513" cy="514" r="495.491"/>
	<circle fill-rule="evenodd" clip-rule="evenodd" fill="#3584C6" cx="513" cy="514" r="393.393"/>
	<path fill-rule="evenodd" clip-rule="evenodd" fill="#28BFE4" d="M770.627,210.662c-47.718,57.413-95.439,114.825-143.145,172.249
		c-1.922,2.315-3.793,4.689-5.526,7.148c-11.04,15.658-10.694,25.507,3.035,39.072c12.127,11.986,25.263,22.952,37.869,34.459
		c3.704,3.382,7.305,6.916,10.644,10.657c10.18,11.412,9.482,20.779-2.897,29.524c-9.006,6.359-18.607,11.9-28.122,17.498
		c-21.066,12.395-42.213,24.649-63.388,36.851c-15.242,8.785-15.578,14.643-1.466,25.689c10.543,8.255,21.229,16.359,31.328,25.138
		c15.608,13.566,15.36,23.12-2.096,33.779c-37.43,22.853-75.339,44.92-113.139,67.162c-67.812,39.907-135.695,79.69-203.516,119.58
		c-3.446,2.025-6.604,4.538-9.896,6.825c-12.995,6.79-25.871,13.823-39.044,20.25c-5.217,2.546-13.123,6.98-16.417,2.795
		c-3.104-3.943,4.801-8.901,8.046-13.179c6.856-9.042,14.281-17.651,21.472-26.438c49.755-59.609,99.516-119.215,149.253-178.84
		c2.14-2.565,4.251-5.191,6.062-7.991c6.455-9.983,5.696-15.821-3.368-23.604c-19.799-17.003-39.635-33.965-59.614-50.756
		c-15.257-12.822-14.673-19.687,2.884-29.737c29.628-16.962,59.24-33.953,88.84-50.961c3.189-1.832,6.431-3.644,9.352-5.857
		c9.203-6.978,9.625-13.995,0.592-21.336c-11.672-9.488-23.587-18.73-35.879-27.396c-17.362-12.24-17.407-21.949,1.003-32.743
		c102.797-60.27,205.666-120.409,308.479-180.641c8.369-4.901,16.521-10.165,24.775-15.26c14.463-8.26,28.902-16.56,43.404-24.749
		c3.32-1.875,6.934-5.372,10.523-0.737c3.338,4.305-1.242,6.694-3.25,9.2C788.671,189.238,779.592,199.903,770.627,210.662z"/>
</g>
</svg>
