<?xml version="1.0" encoding="utf-8"?>
<!-- Generator: Adobe Illustrator 16.0.0, SVG Export Plug-In . SVG Version: 6.00 Build 0)  -->
<!DOCTYPE svg PUBLIC "-//W3C//DTD SVG 1.1//EN" "http://www.w3.org/Graphics/SVG/1.1/DTD/svg11.dtd">
<svg version="1.1" id="Ebene_1" xmlns="http://www.w3.org/2000/svg" xmlns:xlink="http://www.w3.org/1999/xlink" x="0px" y="0px"
	 width="1280px" height="720px" viewBox="0 0 1280 720" enable-background="new 0 0 1280 720" xml:space="preserve">
<g>
	<path fill="#3584C6" d="M534.51,579.232c-58.581,0-113.657-22.834-155.049-64.226c-41.392-41.393-64.141-96.468-64.141-155.05
		c0-58.582,22.834-113.657,64.226-155.049c41.392-41.393,96.467-64.227,155.049-64.227s113.657,22.834,155.049,64.227
		c41.393,41.392,64.227,96.467,64.227,155.049c0,58.582-22.834,113.657-64.227,155.05
		C648.253,556.398,593.092,579.232,534.51,579.232z M534.51,174.976c-49.431,0-95.868,19.242-130.847,54.22
		c-34.978,34.978-54.22,81.416-54.22,130.847c0,49.431,19.242,95.869,54.22,130.847c34.979,34.978,81.416,54.22,130.847,54.22
		c49.432,0,95.869-19.242,130.848-54.22c34.978-34.978,54.22-81.416,54.22-130.847c0-49.432-19.242-95.869-54.22-130.847
		C630.465,194.218,583.941,174.976,534.51,174.976z"/>
</g>
<path id="polygon7" fill="#3584C6" d="M677.843,514.493l58.839-154.536L689.046,216.71L534.51,157.872c0,0,0,67.39,0,101.085
	c0,100.658,0.343,101-101,101c-33.695,0-101.085,0-101.085,0L380.06,503.29l154.45,58.839L677.843,514.493z"/>
</svg>
