<?xml version="1.0" encoding="utf-8"?>
<!-- Generator: Adobe Illustrator 16.0.0, SVG Export Plug-In . SVG Version: 6.00 Build 0)  -->
<!DOCTYPE svg PUBLIC "-//W3C//DTD SVG 1.1//EN" "http://www.w3.org/Graphics/SVG/1.1/DTD/svg11.dtd">
<svg version="1.1"
	 id="svg2" xmlns:dc="http://purl.org/dc/elements/1.1/" xmlns:cc="http://creativecommons.org/ns#" xmlns:rdf="http://www.w3.org/1999/02/22-rdf-syntax-ns#" xmlns:svg="http://www.w3.org/2000/svg"
	 xmlns="http://www.w3.org/2000/svg" xmlns:xlink="http://www.w3.org/1999/xlink" x="0px" y="0px" width="92px" height="92px"
	 viewBox="0 0 92 92" enable-background="new 0 0 92 92" xml:space="preserve">
<g id="g4142" transform="matrix(0,-1,-1,0,23.96,24)">
	<g id="g4210" transform="matrix(-1,0,0,1,59.86,-106.6)">
		<g id="g4289" transform="matrix(-1,0,0,1,-16.98,0.8136)">
			<g id="g4291">
				<path id="path4293" fill="#3584C6" d="M-100.795,78.201v11.5h1.917c2.07,0,3.833,1.917,3.833,3.833v9.967
					c-4.408,1.917-7.666,6.133-7.666,11.5c0,7.667,6.094,13.417,13.416,13.417s13.417-5.75,13.417-13.417
					c0-5.367-3.259-9.583-7.667-11.5v-9.967c0-8.816-6.938-15.333-15.333-15.333H-100.795z M-96.962,82.802
					c5.328,1.15,9.583,4.983,9.583,10.733v12.267l1.303,0.383c3.68,1.15,6.363,4.6,6.363,8.816c0,5.367-4.255,9.583-9.583,9.583
					c-5.328,0-9.583-4.217-9.583-9.583c0-4.217,2.645-7.667,6.363-8.816l1.303-0.383V93.535c0-3.45-2.568-5.75-5.75-6.9V82.802z"/>
				<g id="g4295">
					<path id="path4297" fill="#3584C6" d="M-108.461,39.102c-7.438,0-13.417,6.133-13.417,13.416c0,5.367,3.259,9.584,7.667,11.5
						v10.351c0,8.434,6.861,15.333,15.333,15.333h1.917v-1.917v-9.583h-1.917c-2.108,0-3.833-1.916-3.833-3.833V64.018
						c4.408-1.916,7.666-6.133,7.666-11.5C-95.045,45.235-101.063,39.102-108.461,39.102z M-108.461,42.936
						c5.251,0,9.583,4.6,9.583,9.582c0,4.217-2.684,7.668-6.364,8.817l-1.303,0.384v12.649c0,3.45,2.568,5.75,5.75,6.899v3.834
						c-5.29-1.15-9.583-5.367-9.583-10.733V61.719l-1.304-0.384c-3.68-1.149-6.363-4.601-6.363-8.817
						C-118.045,47.535-113.752,42.936-108.461,42.936z"/>
					<path id="path4299" fill="#3584C6" d="M-70.128,39.102c-7.398,0-13.417,6.133-13.417,13.416c0,5.367,3.258,9.584,7.667,11.5
						v10.351c0,1.917-1.725,3.833-3.833,3.833h-18.592l12.152,11.5h6.44c8.472,0,15.333-6.9,15.333-15.333V64.018
						c4.408-1.916,7.667-6.133,7.667-11.5C-56.712,45.235-62.692,39.102-70.128,39.102z M-70.128,42.936
						c5.29,0,9.583,4.6,9.583,9.582c0,4.217-2.683,7.668-6.363,8.817l-1.303,0.384v12.649c0,6.134-5.175,11.5-11.5,11.5h-6.938
						l-7.82-3.833h14.758c4.255,0,7.667-3.45,7.667-7.667V61.719l-1.303-0.384c-3.68-1.149-6.363-4.601-6.363-8.817
						C-79.712,47.535-75.38,42.936-70.128,42.936z"/>
				</g>
				<path id="path4301" fill="#3584C6" d="M-118.006,78.201c-8.396,0-15.334,6.517-15.334,15.333v9.967
					c-4.37,2.3-7.629,6.133-7.629,11.5c0,7.667,6.134,13.417,13.455,13.417c7.322,0,13.417-5.75,13.417-13.417
					c0-5.367-3.259-9.583-7.667-11.5v-9.967c0-1.917,1.726-3.833,3.834-3.833h19.205l-12.881-11.5H-118.006z M-118.006,82.035h7.053
					l8.395,3.833h-15.371c-4.255,0-7.667,3.45-7.667,7.667v12.267l1.304,0.383c3.68,1.15,6.363,4.6,6.363,8.816
					c0,5.367-4.255,9.583-9.584,9.583c-5.328,0-9.621-4.217-9.621-9.583c0-4.217,2.684-7.667,6.363-8.816l1.266-0.383v-1.534V93.535
					C-129.506,87.018-124.408,82.035-118.006,82.035L-118.006,82.035z"/>
			</g>
		</g>
	</g>
	<path id="path4165" fill="#3584C6" d="M-22-34.268c-3.22,0-6.363,1.307-8.641,3.592c-2.296,2.273-3.611,5.379-3.622,8.637
		c0,3.258,1.292,6.402,3.576,8.663l0,0c2.277,2.3,5.459,3.604,8.679,3.604c3.22,0,6.402-1.303,8.664-3.604
		c2.3-2.261,3.603-5.405,3.603-8.663c0-3.221-1.303-6.363-3.642-8.637C-15.637-32.962-18.78-34.268-22-34.268z"/>
</g>
</svg>
