<?xml version="1.0" encoding="utf-8"?>
<!-- Generator: Adobe Illustrator 16.0.0, SVG Export Plug-In . SVG Version: 6.00 Build 0)  -->
<!DOCTYPE svg PUBLIC "-//W3C//DTD SVG 1.1//EN" "http://www.w3.org/Graphics/SVG/1.1/DTD/svg11.dtd">
<svg version="1.1"
	 id="svg2" xmlns:dc="http://purl.org/dc/elements/1.1/" xmlns:cc="http://creativecommons.org/ns#" xmlns:rdf="http://www.w3.org/1999/02/22-rdf-syntax-ns#" xmlns:svg="http://www.w3.org/2000/svg"
	 xmlns="http://www.w3.org/2000/svg" xmlns:xlink="http://www.w3.org/1999/xlink" x="0px" y="0px" width="92px" height="92px"
	 viewBox="0 0 92 92" enable-background="new 0 0 92 92" xml:space="preserve">
<g id="g4142" transform="matrix(0,-1,-1,0,23.96,24)">
	<g id="g4210" transform="matrix(-1,0,0,1,59.86,-106.6)">
		<g id="g4289" transform="matrix(-1,0,0,1,-16.98,0.8136)">
			<g id="g4291">
				<path id="path4153" fill="#3584C6" d="M-98.878,77.819c-1.271,0-2.3,1.029-2.3,2.3v7.667c0,1.271,1.029,2.3,2.3,2.3
					c1.84,0,3.45,1.533,3.45,3.45v9.2c-4.523,2.3-7.667,6.9-7.667,12.267c0,7.667,6.287,13.8,13.8,13.8
					c7.552,0,13.8-6.134,13.8-13.8c0-5.367-3.182-9.967-7.667-12.267v-9.2C-83.162,84.719-90.292,77.819-98.878,77.819
					L-98.878,77.819z"/>
				<g id="g4295">
					<path id="path4149" fill="#3584C6" d="M-108.461,38.719c-7.667,0-13.801,6.516-13.801,13.799c0,5.367,3.182,9.967,7.667,12.268
						v9.583c0,8.434,7.054,15.717,15.717,15.717c1.27,0,2.3-1.03,2.3-2.3v-7.667c0-1.271-1.03-2.3-2.3-2.3
						c-1.878,0-3.45-1.533-3.45-3.45v-9.583c4.485-2.301,7.667-6.9,7.667-12.268C-94.662,45.235-100.833,38.719-108.461,38.719z"/>
					<path id="path4147" fill="#3584C6" d="M-70.128,38.719c-7.628,0-13.8,6.516-13.8,13.799c0,5.367,3.182,9.967,7.667,12.268
						v9.583c0,1.917-1.571,3.45-3.45,3.45h-16.675c-1.27,0-2.3,1.029-2.3,2.3v7.667c0,1.271,1.03,2.3,2.3,2.3h16.675
						c8.663,0,15.717-7.283,15.717-15.717v-9.583c4.485-2.301,7.667-6.9,7.667-12.268C-56.328,45.235-62.462,38.719-70.128,38.719z"
						/>
				</g>
				<path id="path4155" fill="#3584C6" d="M-118.006,77.819c-8.588,0-15.717,6.9-15.717,15.716v9.583
					c-4.485,1.917-7.629,6.517-7.629,11.883c0,7.667,6.287,13.8,13.838,13.8c7.514,0,13.801-6.134,13.801-13.8
					c0-5.367-3.182-9.967-7.667-12.267v-9.2c0-1.917,1.571-3.45,3.45-3.45h17.288c1.271,0,2.3-1.03,2.3-2.3v-7.667
					c0-1.271-1.03-2.3-2.3-2.3H-118.006L-118.006,77.819z"/>
			</g>
		</g>
	</g>
</g>
<path id="path4170" fill="#3584C6" d="M58.267,46c0-3.22-1.533-6.325-3.833-8.587c-1.917-2.453-4.983-3.68-8.434-3.68
	s-6.517,1.227-8.434,3.68c-2.3,2.262-3.833,5.367-3.833,8.587s1.533,6.325,3.833,8.587c1.917,2.453,4.983,3.68,8.434,3.68
	s6.517-1.227,8.434-3.68C56.733,52.325,58.267,49.22,58.267,46z"/>
</svg>
