<?xml version="1.0" encoding="utf-8"?>
<!-- Generator: Adobe Illustrator 16.0.0, SVG Export Plug-In . SVG Version: 6.00 Build 0)  -->
<!DOCTYPE svg PUBLIC "-//W3C//DTD SVG 1.1//EN" "http://www.w3.org/Graphics/SVG/1.1/DTD/svg11.dtd">
<svg version="1.1"
	 id="svg2" xmlns:dc="http://purl.org/dc/elements/1.1/" xmlns:cc="http://creativecommons.org/ns#" xmlns:rdf="http://www.w3.org/1999/02/22-rdf-syntax-ns#" xmlns:svg="http://www.w3.org/2000/svg"
	 xmlns="http://www.w3.org/2000/svg" xmlns:xlink="http://www.w3.org/1999/xlink" x="0px" y="0px" width="92px" height="92px"
	 viewBox="0 0 92 92" enable-background="new 0 0 92 92" xml:space="preserve">
<g id="g4210" transform="matrix(0,1,-1,0,130.6,-35.86)">
	<g id="g4289" transform="matrix(-1,0,0,1,-16.98,0.8136)">
		<g id="g4291">
			<path id="path4293" fill="#3584C6" d="M-100.795,78.089v11.5h1.917c2.07,0,3.833,1.917,3.833,3.833v9.967
				c-4.408,1.917-7.666,6.133-7.666,11.5c0,7.667,6.094,13.417,13.416,13.417s13.417-5.75,13.417-13.417
				c0-5.367-3.259-9.583-7.667-11.5v-9.967c0-8.816-6.938-15.333-15.333-15.333H-100.795z M-96.962,82.689
				c5.328,1.15,9.583,4.983,9.583,10.733v12.267l1.303,0.383c3.68,1.15,6.363,4.6,6.363,8.816c0,5.367-4.255,9.583-9.583,9.583
				c-5.328,0-9.583-4.217-9.583-9.583c0-4.217,2.645-7.667,6.363-8.816l1.303-0.383V93.422c0-3.45-2.568-5.75-5.75-6.9V82.689z"/>
			<g id="g4295">
				<path id="path4297" fill="#3584C6" d="M-108.461,38.989c-7.438,0-13.417,6.134-13.417,13.417c0,5.366,3.259,9.583,7.667,11.5
					v10.35c0,8.434,6.861,15.333,15.333,15.333h1.917v-1.917v-9.583h-1.917c-2.108,0-3.833-1.918-3.833-3.834v-10.35
					c4.408-1.917,7.666-6.134,7.666-11.5C-95.045,45.122-101.063,38.989-108.461,38.989z M-108.461,42.822
					c5.251,0,9.583,4.6,9.583,9.584c0,4.217-2.684,7.666-6.364,8.816l-1.303,0.383v12.65c0,3.45,2.568,5.75,5.75,6.9v3.833
					c-5.29-1.15-9.583-5.366-9.583-10.733v-12.65l-1.304-0.383c-3.68-1.15-6.363-4.6-6.363-8.816
					C-118.045,47.421-113.752,42.822-108.461,42.822z"/>
				<path id="path4142" fill="#3584C6" d="M-70.128,38.605c-7.628,0-13.8,6.518-13.8,13.801c0,5.366,3.182,9.967,7.667,12.266v9.584
					c0,1.916-1.571,3.45-3.45,3.45h-16.675c-1.27,0-2.3,1.03-2.3,2.3v7.667c0,1.271,1.03,2.3,2.3,2.3h16.675
					c8.663,0,15.717-7.283,15.717-15.717v-9.584c4.485-2.299,7.667-6.899,7.667-12.266C-56.328,45.122-62.462,38.605-70.128,38.605z
					"/>
			</g>
			<path id="path4148" fill="#3584C6" d="M-118.006,77.705c-8.588,0-15.717,6.9-15.717,15.716v9.583
				c-4.485,1.917-7.629,6.517-7.629,11.883c0,7.667,6.287,13.8,13.838,13.8c7.514,0,13.801-6.134,13.801-13.8
				c0-5.367-3.182-9.967-7.667-12.267v-9.2c0-1.917,1.571-3.45,3.45-3.45h17.288c1.271,0,2.3-1.03,2.3-2.3v-7.667
				c0-1.27-1.03-2.3-2.3-2.3H-118.006L-118.006,77.705z"/>
		</g>
	</g>
	<path id="path4170" fill="#3584C6" d="M81.86,72.333c-3.22,0-6.325,1.533-8.587,3.833c-2.453,1.917-3.68,4.983-3.68,8.434
		s1.227,6.517,3.68,8.434c2.262,2.3,5.367,3.833,8.587,3.833c3.221,0,6.325-1.533,8.587-3.833c2.453-1.917,3.68-4.983,3.68-8.434
		s-1.227-6.517-3.68-8.434C88.185,73.867,85.081,72.333,81.86,72.333z"/>
</g>
</svg>
