<?xml version="1.0" encoding="utf-8"?>
<!-- Generator: Adobe Illustrator 16.0.0, SVG Export Plug-In . SVG Version: 6.00 Build 0)  -->
<!DOCTYPE svg PUBLIC "-//W3C//DTD SVG 1.1//EN" "http://www.w3.org/Graphics/SVG/1.1/DTD/svg11.dtd">
<svg version="1.1"
	 id="svg2" xmlns:dc="http://purl.org/dc/elements/1.1/" xmlns:cc="http://creativecommons.org/ns#" xmlns:rdf="http://www.w3.org/1999/02/22-rdf-syntax-ns#" xmlns:svg="http://www.w3.org/2000/svg"
	 xmlns="http://www.w3.org/2000/svg" xmlns:xlink="http://www.w3.org/1999/xlink" x="0px" y="0px" width="92px" height="92px"
	 viewBox="0 0 92 92" enable-background="new 0 0 92 92" xml:space="preserve">
<g id="g4160" transform="translate(0.2636,0.29)">
	<g id="g4210" transform="matrix(0,1,-1,0,130.3,-36.15)">
		<g id="g4289" transform="matrix(-1,0,0,1,-16.98,0.8136)">
			<g id="g4291">
				<path id="path4147" fill="#3584C6" d="M-98.878,77.809c-1.271,0-2.3,1.029-2.3,2.3v7.667c0,1.27,1.029,2.3,2.3,2.3
					c1.84,0,3.45,1.533,3.45,3.45v9.2c-4.523,2.3-7.667,6.9-7.667,12.267c0,7.667,6.287,13.8,13.8,13.8
					c7.552,0,13.8-6.133,13.8-13.8c0-5.367-3.182-9.967-7.667-12.267v-9.2C-83.162,84.708-90.292,77.809-98.878,77.809
					L-98.878,77.809z"/>
				<g id="g4295">
					<path id="path4297" fill="#3584C6" d="M-108.461,39.092c-7.438,0-13.417,6.133-13.417,13.416c0,5.367,3.259,9.584,7.667,11.5
						v10.351c0,8.433,6.861,15.333,15.333,15.333h1.917v-1.917v-9.583h-1.917c-2.108,0-3.833-1.916-3.833-3.833V64.008
						c4.408-1.916,7.666-6.133,7.666-11.5C-95.045,45.225-101.063,39.092-108.461,39.092z M-108.461,42.925
						c5.251,0,9.583,4.601,9.583,9.583c0,4.217-2.684,7.667-6.364,8.817l-1.303,0.384v12.649c0,3.45,2.568,5.75,5.75,6.899v3.834
						c-5.29-1.15-9.583-5.367-9.583-10.733V61.709l-1.304-0.384c-3.68-1.15-6.363-4.601-6.363-8.817
						C-118.045,47.525-113.752,42.925-108.461,42.925z"/>
					<path id="path4145" fill="#3584C6" d="M-70.128,38.709c-7.628,0-13.8,6.516-13.8,13.799c0,5.367,3.182,9.967,7.667,12.268
						v9.583c0,1.917-1.571,3.45-3.45,3.45h-16.675c-1.27,0-2.3,1.029-2.3,2.3v7.667c0,1.27,1.03,2.3,2.3,2.3h16.675
						c8.663,0,15.717-7.284,15.717-15.717v-9.583c4.485-2.301,7.667-6.9,7.667-12.268C-56.328,45.225-62.462,38.709-70.128,38.709z"
						/>
				</g>
				<path id="path4149" fill="#3584C6" d="M-118.006,77.809c-8.588,0-15.717,6.9-15.717,15.716v9.583
					c-4.485,1.917-7.629,6.517-7.629,11.883c0,7.667,6.287,13.8,13.838,13.8c7.514,0,13.801-6.133,13.801-13.8
					c0-5.367-3.182-9.967-7.667-12.267v-9.2c0-1.917,1.571-3.45,3.45-3.45h17.288c1.271,0,2.3-1.03,2.3-2.3v-7.667
					c0-1.271-1.03-2.3-2.3-2.3H-118.006L-118.006,77.809z"/>
			</g>
		</g>
	</g>
	<g id="g4142" transform="matrix(0,1,1,0,-106.3,-36.15)">
		<g id="g4144" transform="matrix(-1,0,0,1,-16.98,0.8136)">
		</g>
	</g>
</g>
<path id="path4170" fill="#3584C6" d="M58.267,46c0-3.22-1.533-6.325-3.833-8.594c-1.917-2.454-4.983-3.68-8.434-3.68
	s-6.517,1.227-8.434,3.68c-2.3,2.269-3.833,5.375-3.833,8.594s1.533,6.325,3.833,8.587c1.917,2.453,4.983,3.68,8.434,3.68
	s6.517-1.227,8.434-3.68C56.733,52.325,58.267,49.22,58.267,46z"/>
</svg>
