<?xml version="1.0" encoding="utf-8"?>
<!-- Generator: Adobe Illustrator 16.0.0, SVG Export Plug-In . SVG Version: 6.00 Build 0)  -->
<!DOCTYPE svg PUBLIC "-//W3C//DTD SVG 1.1//EN" "http://www.w3.org/Graphics/SVG/1.1/DTD/svg11.dtd">
<svg version="1.1" id="Ebene_1" xmlns="http://www.w3.org/2000/svg" xmlns:xlink="http://www.w3.org/1999/xlink" x="0px" y="0px"
	 width="1280px" height="720px" viewBox="0 0 1280 720" enable-background="new 0 0 1280 720" xml:space="preserve">
<g>
	<path fill="#3584C6" d="M454.976,287.777v57.128h60.207v-57.128h32.754v148.807h-32.754v-64.227h-60.207v64.227h-32.755V287.777
		H454.976z"/>
	<path fill="#3584C6" d="M640.898,287.777c9.578,0,18.472,1.54,26.768,4.618c8.296,3.079,15.394,7.611,21.466,13.77
		c6.072,6.157,10.775,13.769,14.196,22.919c3.421,9.151,5.131,19.927,5.131,32.327c0,10.861-1.368,20.867-4.19,30.018
		c-2.821,9.151-7.013,17.104-12.571,23.775c-5.645,6.67-12.657,11.887-21.038,15.735s-18.302,5.729-29.676,5.729h-64.226V287.863
		h64.141V287.777z M638.589,409.046c4.704,0,9.321-0.77,13.769-2.309c4.447-1.54,8.381-4.105,11.888-7.611
		c3.507-3.507,6.243-8.125,8.296-13.854c2.052-5.73,3.164-12.657,3.164-20.867c0-7.525-0.77-14.282-2.224-20.354
		c-1.454-6.072-3.849-11.204-7.184-15.565c-3.335-4.275-7.782-7.611-13.256-9.92c-5.474-2.31-12.229-3.421-20.354-3.421h-23.347
		v93.816h29.248V409.046z"/>
</g>
</svg>
