<?xml version="1.0" encoding="utf-8"?>
<!-- Generator: Adobe Illustrator 16.0.0, SVG Export Plug-In . SVG Version: 6.00 Build 0)  -->
<!DOCTYPE svg PUBLIC "-//W3C//DTD SVG 1.1//EN" "http://www.w3.org/Graphics/SVG/1.1/DTD/svg11.dtd">
<svg version="1.1" id="Ebene_1" xmlns="http://www.w3.org/2000/svg" xmlns:xlink="http://www.w3.org/1999/xlink" x="0px" y="0px"
	 width="1280px" height="720px" viewBox="0 0 1280 720" enable-background="new 0 0 1280 720" xml:space="preserve">
<rect x="691.903" y="191.779" transform="matrix(0.7071 -0.7071 0.7071 0.7071 16.8522 607.2349)" fill="#3584C6" width="99.055" height="182.992"/>
<rect x="360.726" y="413.896" transform="matrix(0.7071 -0.7071 0.7071 0.7071 -156.0617 534.9622)" fill="none" stroke="#3584C6" stroke-width="30" stroke-linecap="round" stroke-linejoin="round" stroke-miterlimit="10" width="413.999" height="83.937"/>
<path fill="#3584C6" d="M669.935,224.962l38.945-38.945c-53.942-44.992-149.976-89.985-264.028-78.011l-3.023,11.974
	C567.976,138.001,619.016,186.017,669.935,224.962z"/>
<path fill="#3584C6" d="M798.985,354.013l38.945-38.944c44.992,53.942,89.984,149.975,78.011,264.028l-11.974,3.023
	C885.946,455.972,837.931,402.029,798.985,354.013z"/>
</svg>
