<?xml version="1.0" encoding="utf-8"?>
<!-- Generator: Adobe Illustrator 16.0.0, SVG Export Plug-In . SVG Version: 6.00 Build 0)  -->
<!DOCTYPE svg PUBLIC "-//W3C//DTD SVG 1.1//EN" "http://www.w3.org/Graphics/SVG/1.1/DTD/svg11.dtd">
<svg version="1.1"
	 id="svg2" xmlns:dc="http://purl.org/dc/elements/1.1/" xmlns:cc="http://creativecommons.org/ns#" xmlns:rdf="http://www.w3.org/1999/02/22-rdf-syntax-ns#" xmlns:svg="http://www.w3.org/2000/svg"
	 xmlns="http://www.w3.org/2000/svg" xmlns:xlink="http://www.w3.org/1999/xlink" x="0px" y="0px" width="92px" height="92px"
	 viewBox="0 0 92 92" enable-background="new 0 0 92 92" xml:space="preserve">
<g id="g4142" transform="matrix(0,-1,-1,0,23.96,24)">
	<g id="g4210" transform="matrix(-1,0,0,1,59.86,-106.6)">
		<g id="g4289" transform="matrix(-1,0,0,1,-16.98,0.8136)">
			<g id="g4291">
				<path id="path4293" fill="#3584C6" fill-opacity="0.5" d="M-56.711,52.518c0,5.367-3.258,9.584-7.667,11.5v10.348
					c0,8.434-6.861,15.333-15.333,15.333h-4.343c0.304,1.223,0.509,2.489,0.509,3.833v9.973c4.408,1.917,7.667,6.133,7.667,11.5
					c0,7.667-6.095,13.417-13.417,13.417s-13.417-5.75-13.417-13.417c0-5.367,3.259-9.583,7.667-11.5v-8.161
					c-1.228,0.404-2.505,0.667-3.803,0.667c-3.22,0-6.401-1.301-8.678-3.601c-0.804-0.796-1.438-1.729-1.983-2.71h-8.423
					c-2.108,0-3.834,1.917-3.834,3.833v9.973c4.409,1.917,7.668,6.133,7.668,11.5c0,7.667-6.096,13.417-13.418,13.417
					c-7.321,0-13.453-5.75-13.453-13.417c0-5.367,3.259-9.2,7.629-11.5v-9.973c0-8.817,6.938-15.333,15.334-15.333h4.334
					c-0.32-1.231-0.539-2.505-0.539-3.833V64.018c-4.408-1.916-7.666-6.133-7.666-11.5c0-7.283,5.979-13.416,13.416-13.416
					c7.398,0,13.417,6.133,13.417,13.416c0,5.367-3.258,9.584-7.667,11.5v8.191c1.246-0.422,2.544-0.689,3.871-0.689
					c3.22,0,6.363,1.302,8.618,3.586c0.926,0.901,1.639,1.968,2.224,3.093h8.288c2.108,0,3.833-1.917,3.833-3.833V64.018
					c-4.408-1.916-7.667-6.133-7.667-11.5c0-7.283,6.019-13.416,13.417-13.416C-62.691,39.102-56.711,45.235-56.711,52.518z
					 M-60.544,52.518c0-4.982-4.293-9.583-9.583-9.583c-5.251,0-9.583,4.601-9.583,9.583c0,4.217,2.684,7.67,6.364,8.82l1.303,0.381
					v12.646c0,4.217-3.412,7.666-7.667,7.666h-7.045c0.083,0.568,0.172,1.137,0.172,1.715c0,0.175-0.045,0.343-0.053,0.517
					c0.382,0.506,0.716,1.046,1.033,1.602h5.893c6.325,0,11.5-5.367,11.5-11.5V61.719l1.303-0.381
					C-63.228,60.188-60.544,56.735-60.544,52.518z M-79.711,115.005c0-4.217-2.684-7.67-6.364-8.82l-1.303-0.382V93.532
					c0-1.438-0.266-2.752-0.749-3.938c-0.559,1.022-1.22,1.99-2.059,2.815c-0.319,0.325-0.694,0.584-1.048,0.868
					c0.003,0.087,0.022,0.166,0.022,0.255v12.271l-1.303,0.382c-3.718,1.15-6.364,4.603-6.364,8.82c0,5.367,4.255,9.583,9.583,9.583
					S-79.711,120.371-79.711,115.005z M-98.878,52.518c0-4.982-4.332-9.583-9.583-9.583c-5.289,0-9.583,4.601-9.583,9.583
					c0,4.217,2.685,7.67,6.364,8.82l1.303,0.381v12.646c0,1.327,0.266,2.586,0.74,3.743c0.576-1.089,1.269-2.123,2.156-3.003
					c0.287-0.287,0.624-0.508,0.937-0.764V61.719l1.303-0.381C-101.561,60.188-98.878,56.735-98.878,52.518z M-110.895,85.865
					c-0.121-0.697-0.209-1.403-0.209-2.119c0-0.071,0.021-0.139,0.022-0.209c-0.363-0.482-0.69-0.982-0.995-1.505h-5.93
					c-6.402,0-11.5,4.983-11.5,11.5v10.736v1.535l-1.266,0.382c-3.68,1.15-6.364,4.603-6.364,8.82c0,5.367,4.292,9.583,9.62,9.583
					c5.329,0,9.584-4.216,9.584-9.583c0-4.217-2.684-7.67-6.363-8.82l-1.303-0.382V93.532c0-4.217,3.411-7.667,7.666-7.667H-110.895
					z"/>
			</g>
		</g>
	</g>
</g>
<path fill="#3584C6" stroke="#000000" stroke-width="3" stroke-linecap="round" d="M11.5,11.5l69,69"/>
<path fill="#3584C6" stroke="#000000" stroke-width="3" stroke-linecap="round" d="M80.5,11.5l-69,69"/>
</svg>
