<?xml version="1.0" encoding="utf-8"?>
<!-- Generator: Adobe Illustrator 16.0.0, SVG Export Plug-In . SVG Version: 6.00 Build 0)  -->
<!DOCTYPE svg PUBLIC "-//W3C//DTD SVG 1.1//EN" "http://www.w3.org/Graphics/SVG/1.1/DTD/svg11.dtd">
<svg version="1.1"
	 id="Ebene_1" xmlns:dc="http://purl.org/dc/elements/1.1/" xmlns:cc="http://creativecommons.org/ns#" xmlns:rdf="http://www.w3.org/1999/02/22-rdf-syntax-ns#" xmlns:svg="http://www.w3.org/2000/svg"
	 xmlns="http://www.w3.org/2000/svg" xmlns:xlink="http://www.w3.org/1999/xlink" x="0px" y="0px" width="609.4px" height="609.4px"
	 viewBox="0 0 609.4 609.4" enable-background="new 0 0 609.4 609.4" xml:space="preserve">
<g id="g4151" transform="matrix(2.553,0,0,2.553,-2149,281.5)">
	<path id="path26" fill="#3584C6" d="M902.004-103.68c-15.159-0.18-32.903,5.785-33.584,27.384v181.706l14.508,16.334
		l153.116-25.735c9.988-1.802,18.018-14.297,18.018-27.732V-79.838L913.638-102.87c-1.567-0.262-8.618-0.772-10.145-0.776
		C902.983-103.665,902.513-103.676,902.004-103.68z M948.93-61.69c1.802,0,3.604,0.078,5.405,0.313v0.039
		c12.809,1.489,22.092,7.521,28.203,17.979c5.993,10.263,8.892,24.951,8.892,44.301c0,17.705-2.194,31.61-6.502,41.795
		c-4.387,10.38-11.085,17.196-20.368,20.408c0.979,4.778,2.389,7.99,4.191,9.675c1.097,0.901,2.585,1.527,4.387,1.723h0.117h0.274
		h2.036c0.783,0,1.175,0.196,2.664,0v14.101l-6.385,0.901c-1.88,0.196-3.682,0.274-5.405,0.274c-5.601,0-10.106-1.293-13.592-4.074
		c-4.505-3.604-7.795-10.615-9.91-20.917c-9.793-2.076-17.509-8.304-22.797-18.802c-5.288-10.576-8.108-26.205-8.108-46.495
		c0-21.896,3.799-38.073,11.124-48.336C929.462-57.46,938.041-61.69,948.93-61.69z M1008.037-54.091l12.025,1.332v21.661
		l12.965,1.018v13.592l-12.965-0.666v49.707c0,4.27,0.979,7.09,1.998,8.382c0,1.097,1.997,1.684,2.977,1.684h1.018
		c2.977-0.196,5.993-0.979,9.009-2.468V52.53c-6.032,2.507-11.007,3.917-17,4.387c0,0.117-1.019,0.117-2.037,0.117
		c-4.975,0-7.991-1.41-10.967-4.191c-3.016-3.29-5.014-8.617-5.014-15.825v-55.034l-5.405-0.313V-32.9l8.421,0.588L1008.037-54.091z
		 M953.239-45.121c-4.7,0-8.304,2.703-10.811,8.187c-2.663,5.954-3.995,18.253-3.995,36.976c0,17.979,1.332,30.788,3.995,38.308
		c2.507,7.168,6.307,10.693,11.32,10.693h0.588c5.014-0.313,8.696-3.8,11.32-10.302c2.507-6.502,3.682-19.193,3.682-38.191
		c0-17.078-1.175-28.79-3.682-35.253c-2.507-6.502-6.306-9.988-11.32-10.419H953.239z"/>
</g>
</svg>
