<?xml version="1.0" encoding="utf-8"?>
<!-- Generator: Adobe Illustrator 16.0.0, SVG Export Plug-In . SVG Version: 6.00 Build 0)  -->
<!DOCTYPE svg PUBLIC "-//W3C//DTD SVG 1.1//EN" "http://www.w3.org/Graphics/SVG/1.1/DTD/svg11.dtd">
<svg version="1.1" id="Ebene_1" xmlns="http://www.w3.org/2000/svg" xmlns:xlink="http://www.w3.org/1999/xlink" x="0px" y="0px"
	 width="1280px" height="720px" viewBox="0 0 1280 720" enable-background="new 0 0 1280 720" xml:space="preserve">
<path fill="#3584C6" d="M670,525c-75,0-135-60-135-135c0-18-12-30-30-30s-30,12-30,30c0,108,87,195,195,195s195-87,195-195
	s-87-195-195-195c-18,0-30,12-30,30s12,30,30,30c75,0,135,60,135,135S745,525,670,525z M391,309c-18,0-30-12-30-30s12-30,30-30h99
	l-51-51L316,75c-12-12-12-30,0-42c6-6,12-9,21-9s15,3,21,9l123,123l51,51v-99c0-18,12-30,30-30s30,12,30,30v201H391"/>
</svg>
