<?xml version="1.0" encoding="utf-8"?>
<!-- Generator: Adobe Illustrator 16.0.0, SVG Export Plug-In . SVG Version: 6.00 Build 0)  -->
<!DOCTYPE svg PUBLIC "-//W3C//DTD SVG 1.1//EN" "http://www.w3.org/Graphics/SVG/1.1/DTD/svg11.dtd">
<svg version="1.1" id="Ebene_1" xmlns="http://www.w3.org/2000/svg" xmlns:xlink="http://www.w3.org/1999/xlink" x="0px" y="0px"
	 width="1280px" height="720px" viewBox="0 0 1280 720" enable-background="new 0 0 1280 720" xml:space="preserve">
<path fill="#3584C6" d="M921.989,384.008c-18.021-11.974-44.993-3.023-53.942,14.998l-74.988,134.977l-41.969-41.969
	c-14.997-14.997-41.969-14.997-56.966,0c-14.997,14.998-14.997,41.969,0,56.967l81.034,81.035
	c8.951,8.949,18.021,11.974,26.972,11.974h6.048c11.974-3.024,23.947-8.95,29.994-21.045l99.057-179.97
	C948.96,419.93,943.033,395.981,921.989,384.008z"/>
<path fill="#3584C6" d="M526.007,570.025h-179.97V437.95l114.054-114.053c-6.048-18.021-8.95-36.042-8.95-53.943
	c0-99.056,81.035-179.97,179.97-179.97s179.97,81.035,179.97,179.97s-81.035,179.97-179.97,179.97h-44.992v59.989h-59.99
	L526.007,570.025L526.007,570.025z M406.027,510.035h59.99v-59.99h59.989v-59.989h104.982c66.037,0,119.979-53.942,119.979-119.98
	s-53.942-120.101-119.979-120.101S511.01,203.917,511.01,269.955c0,18.021,3.023,33.019,11.974,48.016l8.95,18.021L409.051,458.995
	v51.04H406.027z M630.989,239.959c18.021,0,29.995,11.974,29.995,29.995s-11.974,29.995-29.995,29.995
	c-18.021,0-29.995-11.974-29.995-29.995S615.992,239.959,630.989,239.959 M630.989,209.965c-33.019,0-59.989,26.971-59.989,59.99
	s26.971,59.99,59.989,59.99s59.99-26.971,59.99-59.99S667.031,209.965,630.989,209.965z"/>
</svg>
